<svg xmlns="http://www.w3.org/2000/svg" viewBox="0 0 500 372.61"><defs><style>.cls-1{fill:#ebebeb;}.cls-2{fill:#fafafa;}.cls-3{fill:#e0e0e0;}.cls-4{opacity:0.8;}.cls-5{fill:#f5f5f5;}.cls-6{fill:#f0f0f0;}.cls-7{fill:#e6e6e6;}.cls-17,.cls-8{fill:#263838;}.cls-21,.cls-22,.cls-9{fill:#053c5e;}.cls-10,.cls-15,.cls-18,.cls-19,.cls-20,.cls-24{fill:#fff;}.cls-10,.cls-22{opacity:0.6;}.cls-11,.cls-14,.cls-17{opacity:0.3;}.cls-12{fill:#ffa473;}.cls-13,.cls-19,.cls-25{opacity:0.2;}.cls-16{fill:#ed743e;}.cls-18,.cls-23{opacity:0.1;}.cls-20{opacity:0.9;}.cls-21{opacity:0.5;}.cls-24{opacity:0.7;}</style></defs><g id="Background_Complete" data-name="Background Complete"><rect class="cls-1" y="327.45" width="500" height="0.25"/><rect class="cls-1" x="394.36" y="338.9" width="50.9" height="0.25"/><rect class="cls-1" x="52.46" y="335.94" width="47.21" height="0.25"/><rect class="cls-1" x="378.81" y="334.26" width="19.19" height="0.25"/><rect class="cls-1" x="317.14" y="340.89" width="14.08" height="0.25"/><rect class="cls-1" x="272.79" y="340.89" width="35.44" height="0.25"/><rect class="cls-1" x="195.22" y="336.66" width="56.99" height="0.25"/><path class="cls-1" d="M237,337.8H43.91a5.71,5.71,0,0,1-5.7-5.71V60.66A5.71,5.71,0,0,1,43.91,55H237a5.71,5.71,0,0,1,5.71,5.71V332.09A5.71,5.71,0,0,1,237,337.8ZM43.91,55.2a5.46,5.46,0,0,0-5.45,5.46V332.09a5.46,5.46,0,0,0,5.45,5.46H237a5.47,5.47,0,0,0,5.46-5.46V60.66A5.47,5.47,0,0,0,237,55.2Z" transform="translate(0 -54.95)"/><path class="cls-1" d="M453.31,337.8H260.21a5.72,5.72,0,0,1-5.71-5.71V60.66A5.72,5.72,0,0,1,260.21,55h193.1A5.71,5.71,0,0,1,459,60.66V332.09A5.71,5.71,0,0,1,453.31,337.8ZM260.21,55.2a5.47,5.47,0,0,0-5.46,5.46V332.09a5.47,5.47,0,0,0,5.46,5.46h193.1a5.47,5.47,0,0,0,5.46-5.46V60.66a5.47,5.47,0,0,0-5.46-5.46Z" transform="translate(0 -54.95)"/><rect class="cls-1" x="288.57" y="30.71" width="101.8" height="296.73"/><rect class="cls-2" x="197.11" y="190" width="284.73" height="88.06" transform="translate(573.5 -160.39) rotate(90)"/><rect class="cls-1" x="183.72" y="30.71" width="101.8" height="296.73"/><rect class="cls-3" x="285.52" y="86.83" width="3.05" height="294.4" transform="translate(574.09 413.11) rotate(180)"/><rect class="cls-2" x="92.25" y="190" width="284.73" height="88.06" transform="translate(468.65 -55.54) rotate(90)"/><path class="cls-3" d="M436.87,83.44H137.22a1.34,1.34,0,0,1-1.33-1.33h0a1.34,1.34,0,0,1,1.33-1.33H436.87a1.34,1.34,0,0,1,1.33,1.33h0A1.34,1.34,0,0,1,436.87,83.44Z" transform="translate(0 -54.95)"/><rect class="cls-3" x="336.64" y="50.47" width="5.67" height="88.06" transform="translate(433.97 -299.92) rotate(90)"/><rect class="cls-3" x="334.69" y="52.42" width="9.56" height="88.06" transform="translate(435.92 -297.98) rotate(90)"/><rect class="cls-3" x="224.17" y="58.08" width="20.89" height="88.06" transform="translate(336.73 -187.46) rotate(90)"/><g class="cls-4"><rect class="cls-5" x="375.24" y="19.6" width="28.2" height="304.19"/><rect class="cls-6" x="382.69" y="19.6" width="13.31" height="304.19"/><rect class="cls-5" x="390.37" y="19.6" width="28.2" height="304.19"/><rect class="cls-6" x="397.82" y="19.6" width="13.31" height="304.19"/><rect class="cls-5" x="404.47" y="19.6" width="28.2" height="304.19"/></g><g class="cls-4"><rect class="cls-5" x="140.53" y="19.6" width="40.93" height="304.19"/><rect class="cls-6" x="151.33" y="19.6" width="19.32" height="304.19"/><rect class="cls-5" x="162.48" y="19.6" width="40.93" height="304.19"/><rect class="cls-6" x="173.28" y="19.6" width="19.32" height="304.19"/><rect class="cls-5" x="182.94" y="19.6" width="40.93" height="304.19"/></g><rect class="cls-6" x="55.07" y="50.78" width="66.03" height="148.67"/><rect class="cls-7" x="121.1" y="105.73" width="2.08" height="148.67" transform="translate(244.28 305.18) rotate(180)"/><rect class="cls-2" x="19.75" y="153.05" width="136.67" height="54.03" transform="translate(268.15 37.03) rotate(90)"/><path class="cls-5" d="M125.26,328.07H57.48a5.64,5.64,0,0,1-5.63-5.62h0a5.64,5.64,0,0,1,5.63-5.62h67.78a5.64,5.64,0,0,1,5.62,5.62h0A5.64,5.64,0,0,1,125.26,328.07Z" transform="translate(0 -54.95)"/><polygon class="cls-7" points="73.78 273.12 62.65 273.12 50 327.45 61.12 327.45 73.78 273.12"/><polygon class="cls-7" points="95.98 273.12 84.86 273.12 78.63 327.45 89.75 327.45 95.98 273.12"/><polygon class="cls-7" points="108.96 273.12 120.08 273.12 132.74 327.45 121.61 327.45 108.96 273.12"/></g><g id="Shadow"><ellipse id="_Path_" data-name="&lt;Path&gt;" class="cls-5" cx="250" cy="361.29" rx="193.89" ry="11.32"/></g><g id="Character"><rect class="cls-8" x="226.31" y="243.41" width="91.19" height="9.22" rx="2.93"/><polygon class="cls-9" points="313.76 355.29 317.5 355.29 313.2 252.63 308.02 252.63 313.76 355.29"/><polygon class="cls-10" points="313.76 355.29 317.5 355.29 313.2 252.63 308.02 252.63 313.76 355.29"/><polygon class="cls-9" points="279.33 355.29 275.59 355.29 279.89 252.63 285.07 252.63 279.33 355.29"/><polygon class="cls-10" points="279.33 355.29 275.59 355.29 279.89 252.63 285.07 252.63 279.33 355.29"/><polygon class="cls-9" points="264.49 355.29 268.23 355.29 263.92 252.63 258.75 252.63 264.49 355.29"/><polygon class="cls-10" points="264.49 355.29 268.23 355.29 263.92 252.63 258.75 252.63 264.49 355.29"/><polygon class="cls-9" points="230.05 355.29 226.31 355.29 230.62 252.63 235.79 252.63 230.05 355.29"/><polygon class="cls-10" points="230.05 355.29 226.31 355.29 230.62 252.63 235.79 252.63 230.05 355.29"/><g class="cls-11"><polygon class="cls-9" points="313.2 252.62 308.02 252.62 308.26 256.99 313.38 256.99 313.2 252.62"/><polygon class="cls-9" points="279.71 256.99 284.82 256.99 285.07 252.62 279.89 252.62 279.71 256.99"/><polygon class="cls-9" points="258.75 252.62 258.99 256.99 264.11 256.99 263.92 252.62 258.75 252.62"/><polygon class="cls-9" points="230.43 256.99 235.56 256.99 235.8 252.62 230.62 252.62 230.43 256.99"/></g><polygon class="cls-12" points="262.08 340.2 253.62 344.7 240.28 326.69 248.75 322.19 262.08 340.2"/><path class="cls-8" d="M250.56,396.87l8.84-6.14a.68.68,0,0,1,1,.13l5.29,6.69a1.71,1.71,0,0,1-.41,2.36c-3.11,2.08-4.51,2.81-8.58,5.23-2.51,1.48-8.51,5-12.2,6.61s-5.17-2.09-3.75-3.1c3.37-2.38,7.83-7.06,8.84-10.35A2.67,2.67,0,0,1,250.56,396.87Z" transform="translate(0 -54.95)"/><polygon class="cls-13" points="248.76 322.19 240.28 326.69 246.71 335.36 254.99 330.61 248.76 322.19"/><path class="cls-9" d="M269.19,270.47s-65.74-2.05-66,25.42c-.32,39.48,37.15,91.33,37.15,91.33L255,377.47s-25.68-37.69-25.9-68.51c19.37-5.47,65-2,70.91-18.1,4.84-13.14,2.31-20.39,2.31-20.39Z" transform="translate(0 -54.95)"/><path class="cls-13" d="M269.19,270.47s-65.74-2.05-66,25.42c-.32,39.48,37.15,91.33,37.15,91.33L255,377.47s-25.68-37.69-25.9-68.51c19.37-5.47,65-2,70.91-18.1,4.84-13.14,2.31-20.39,2.31-20.39Z" transform="translate(0 -54.95)"/><polygon class="cls-8" points="258.98 325.02 241.54 335.7 236.07 330.15 255.23 318.09 258.98 325.02"/><path class="cls-9" d="M248.73,400.18a11.2,11.2,0,0,0,1.9-1.74.22.22,0,0,0-.17-.37c-.37,0-3.65,0-4.35,1.07a.85.85,0,0,0-.07.82,1.23,1.23,0,0,0,.92.83A2.62,2.62,0,0,0,248.73,400.18Zm1.21-1.65c-1.21,1.26-2.28,1.93-2.9,1.82a.77.77,0,0,1-.58-.56.38.38,0,0,1,0-.4C246.86,398.83,248.63,398.58,249.94,398.53Z" transform="translate(0 -54.95)"/><path class="cls-9" d="M250.59,398.48a.27.27,0,0,0,.07-.08.22.22,0,0,0,0-.22c-.06-.1-1.46-2.48-2.78-2.7a1.14,1.14,0,0,0-1,.29.85.85,0,0,0-.28,1c.42,1,2.73,1.81,3.84,1.74ZM247.3,396a.66.66,0,0,1,.51-.12c.79.13,1.75,1.38,2.25,2.14-1.09-.1-2.73-.8-3-1.45-.05-.12-.08-.29.17-.51C247.25,396.08,247.27,396.05,247.3,396Z" transform="translate(0 -54.95)"/><polygon class="cls-12" points="246.43 351.24 236.93 350.79 235.37 328.36 244.87 328.81 246.43 351.24"/><path class="cls-8" d="M236.71,404.12l10.75-.34a.69.69,0,0,1,.74.63l.79,8.49a1.7,1.7,0,0,1-1.63,1.76c-3.74,0-5.54-.11-10.27,0-2.91.09-8.63.52-12.62,0s-3.38-4.43-1.65-4.58c4.11-.33,9.62-3.17,12.26-5.38A2.69,2.69,0,0,1,236.71,404.12Z" transform="translate(0 -54.95)"/><path class="cls-9" d="M233.37,405.89a11.71,11.71,0,0,0,2.54-.42.22.22,0,0,0,.06-.4c-.31-.2-3.08-2-4.23-1.48a.85.85,0,0,0-.5.65,1.23,1.23,0,0,0,.31,1.2A2.56,2.56,0,0,0,233.37,405.89Zm1.91-.72c-1.7.39-3,.38-3.42-.05a.82.82,0,0,1-.19-.79.4.4,0,0,1,.24-.32C232.53,403.74,234.15,404.49,235.28,405.17Z" transform="translate(0 -54.95)"/><path class="cls-9" d="M235.86,405.48a.19.19,0,0,0,.1,0,.21.21,0,0,0,.11-.18c0-.12.14-2.88-.86-3.78a1.1,1.1,0,0,0-1-.28.85.85,0,0,0-.79.7c-.19,1,1.3,3,2.27,3.54A.27.27,0,0,0,235.86,405.48Zm-1.43-3.84a.63.63,0,0,1,.48.18c.6.54.72,2.11.73,3-.86-.68-1.86-2.16-1.73-2.85,0-.13.09-.29.41-.34Z" transform="translate(0 -54.95)"/><polygon class="cls-13" points="244.88 328.81 235.37 328.36 236.26 341.19 245.74 341.18 244.88 328.81"/><path class="cls-9" d="M292.57,270.47s-68.78,6.5-66.28,27.21c3.62,29.86,5.4,94.22,5.4,94.22l17.53.69s7.43-58,3.59-88.63c17.8,0,61.38,1.28,65.35-9.44,3.51-9.48,2.26-24,2.26-24Z" transform="translate(0 -54.95)"/><polygon class="cls-8" points="251.16 338.72 230.12 337.68 229.36 328.52 252.44 330.11 251.16 338.72"/><path class="cls-12" d="M277.31,209.81c-.13,1.68-.26,3.14-.45,4.68s-.39,3-.63,4.56c-.47,3-1.07,6-1.77,9.07a71.77,71.77,0,0,1-6.59,18.22,32.69,32.69,0,0,1-3.09,4.59,20.83,20.83,0,0,1-4.54,4.22,22.69,22.69,0,0,1-11.07,3.74,32,32,0,0,1-10.29-1,40.2,40.2,0,0,1-4.66-1.5c-.76-.29-1.5-.61-2.23-1s-1.41-.71-2.25-1.16l2.63-6.69,1.91.24,2,.2c1.34.11,2.66.18,4,.18a27.67,27.67,0,0,0,7.21-.83,11.85,11.85,0,0,0,5.09-2.65,11.54,11.54,0,0,0,1.66-1.94,23.8,23.8,0,0,0,1.58-2.84,45.89,45.89,0,0,0,2.59-7.11c.76-2.53,1.37-5.18,1.92-7.88s1-5.43,1.45-8.18l.59-4.14c.18-1.36.38-2.82.51-4Z" transform="translate(0 -54.95)"/><path class="cls-8" d="M277.37,201.66c-7-6.79-15.7-2.78-19.16,10a118,118,0,0,0-4,20.87l22.27,4.6C280.53,224.94,284.57,208.62,277.37,201.66Z" transform="translate(0 -54.95)"/><path class="cls-14" d="M270.2,215.56c1.59-1.43,6.11,5,8.87,12.93-.78,3-1.67,5.89-2.58,8.6l-13.4-2.77C264.16,226.4,266.63,218.78,270.2,215.56Z" transform="translate(0 -54.95)"/><path class="cls-12" d="M230.86,244.54l-5-1.91-.22,10.61s8.4,3.63,10.11-.54l-.6-2.65A8.59,8.59,0,0,0,230.86,244.54Z" transform="translate(0 -54.95)"/><polygon class="cls-12" points="219.96 187.96 217.01 196.86 225.68 198.29 225.9 187.68 219.96 187.96"/><path class="cls-8" d="M227.52,250a.56.56,0,0,1-.51-.31l-8.93-17.19a.58.58,0,0,1,.24-.78.59.59,0,0,1,.78.25L228,249.13a.58.58,0,0,1-.24.78A.66.66,0,0,1,227.52,250Z" transform="translate(0 -54.95)"/><path class="cls-8" d="M276.54,194.85l10.68-3,13.72-.64a9.51,9.51,0,0,1,9.5,6.56c2.61,8,5,19.52,6.77,29.49,2,11.19,3,28,3.21,43.26H269.19c-1.17-31.85-5.22-50.68-7-61.1a9.48,9.48,0,0,1,5.28-10.19Z" transform="translate(0 -54.95)"/><path class="cls-14" d="M317.21,227.22c-1.38-7.85-3.16-16.69-5.14-24-9.13-1.54-13.55,18.48-10.84,28.41s17.16,3.91,17.16,3.91C318.05,232.55,317.65,229.74,317.21,227.22Z" transform="translate(0 -54.95)"/><path class="cls-8" d="M285.4,171c2.2,5.4.88,15.3-3.46,12.5S284.06,167.72,285.4,171Z" transform="translate(0 -54.95)"/><path class="cls-12" d="M283,174.46l-4.15,6.34-5.64,8.63a8.62,8.62,0,0,1,1.74,2.55c1,2.08,1.89,3.63-2.48,6.61a2.91,2.91,0,0,0-1.31,2.86c.26,1.35,1.6,2.66,6.31,1.83a21.65,21.65,0,0,0,11.82-6.56c1.57-1.57,1.21-2.75-.3-4.38C284.67,187.74,283.39,180.39,283,174.46Z" transform="translate(0 -54.95)"/><path class="cls-13" d="M274.56,187.3l3.46-6.15q.11.24.24.51A15.71,15.71,0,0,1,279,184c.63,2.73-1.49,6.63-3.82,8.49l-.27-.53a10.8,10.8,0,0,0-1.6-2.45.53.53,0,0,0-.14-.1Z" transform="translate(0 -54.95)"/><path class="cls-8" d="M253.79,167c-1.29,2.91,3.28,11.15,8.51,7.82S256.07,161.85,253.79,167Z" transform="translate(0 -54.95)"/><path class="cls-15" d="M279,205.05a.29.29,0,0,1-.29-.24c-.38-2.47-2-4-3.83-5.86-2.32-2.27-4.95-4.85-5.81-9.9a.28.28,0,0,1,.56-.1c.84,4.87,3.4,7.38,5.65,9.59,1.85,1.81,3.59,3.52,4,6.18a.28.28,0,0,1-.24.33Z" transform="translate(0 -54.95)"/><path class="cls-12" d="M281.13,164.07c2,9.06,3.56,14.27.33,20-4.88,8.67-17.08,7.49-21.72-.85-4.18-7.5-6.67-21.06,1.1-26.91A12.87,12.87,0,0,1,281.13,164.07Z" transform="translate(0 -54.95)"/><path class="cls-8" d="M283.82,170.29c-3.12,4.43-11.3-3.7-10.63-9.16-8.12,4.62-16.94,10.79-22.29,5.59-6.18-6-4.49-14.6,2.75-15.37-1.28,2.5,6,3.61,9.87-.25,6.55-6.48,16.9-5.13,16.71.12C285.22,149.24,290.67,160.56,283.82,170.29Z" transform="translate(0 -54.95)"/><path class="cls-8" d="M279.27,152.69c1.93-1.44.65-6.57-3.83-8.07C279.7,145.17,284.11,148.34,279.27,152.69Z" transform="translate(0 -54.95)"/><path class="cls-12" d="M286.71,169.89a8.48,8.48,0,0,1-1.9,5.71c-1.72,2.05-4.37.42-5-2.14-.55-2.29.16-5.84,2.42-6.94S286.59,167.31,286.71,169.89Z" transform="translate(0 -54.95)"/><path class="cls-8" d="M268.13,171.42c.24.73.06,1.47-.42,1.64s-1-.28-1.29-1-.06-1.47.42-1.65S267.89,170.68,268.13,171.42Z" transform="translate(0 -54.95)"/><path class="cls-8" d="M259.93,174.42c.25.74.06,1.48-.42,1.65s-1.05-.28-1.29-1-.05-1.47.42-1.64S259.69,173.69,259.93,174.42Z" transform="translate(0 -54.95)"/><path class="cls-16" d="M262.74,174a24.9,24.9,0,0,1-.76,6.49c1.47.54,3.09-.73,3.09-.73Z" transform="translate(0 -54.95)"/><path class="cls-8" d="M267.13,183.83a6.61,6.61,0,0,0,3.91-3.45.23.23,0,0,0-.12-.3.24.24,0,0,0-.3.13,6.34,6.34,0,0,1-4.45,3.42.23.23,0,1,0,.09.45A6.85,6.85,0,0,0,267.13,183.83Z" transform="translate(0 -54.95)"/><path class="cls-8" d="M268.88,168.24a.41.41,0,0,0,.17-.15.46.46,0,0,0-.14-.63,4.34,4.34,0,0,0-4.07-.42.45.45,0,0,0-.22.61.46.46,0,0,0,.61.21,3.47,3.47,0,0,1,3.19.36A.43.43,0,0,0,268.88,168.24Z" transform="translate(0 -54.95)"/><path class="cls-8" d="M258.31,169.68a.47.47,0,0,0,0-.23.46.46,0,0,0-.6-.24,4.32,4.32,0,0,0-2.66,3.11.45.45,0,1,0,.89.15,3.45,3.45,0,0,1,2.12-2.42A.46.46,0,0,0,258.31,169.68Z" transform="translate(0 -54.95)"/><path class="cls-12" d="M308.67,198c1,1.62,1.8,3.08,2.63,4.64s1.63,3.08,2.41,4.64c1.58,3.11,3,6.31,4.38,9.57s2.59,6.62,3.63,10.12A57.11,57.11,0,0,1,324,238.25a27,27,0,0,1-.23,6.7,14.88,14.88,0,0,1-1.32,4.21,12.69,12.69,0,0,1-3.06,3.94,13.3,13.3,0,0,1-3.86,2.34,17.59,17.59,0,0,1-3.67,1,25,25,0,0,1-6.41.17,38.44,38.44,0,0,1-5.66-.91,54.18,54.18,0,0,1-5.26-1.48,66,66,0,0,1-9.86-4.18l2.53-6.73c6.22,1.18,12.9,2.27,18.51,1.93a15.68,15.68,0,0,0,3.62-.62c1-.3,1.51-.75,1.47-.89s-.06,0-.08-.1,0-.11,0-.62a14.72,14.72,0,0,0-.2-3.36,46,46,0,0,0-2.23-8.37c-1-2.9-2.21-5.83-3.52-8.73s-2.72-5.81-4.15-8.71q-1.08-2.18-2.23-4.31l-2.26-4.19Z" transform="translate(0 -54.95)"/><path class="cls-8" d="M304,191.31c-9.66-1.47-14.41,6.82-9.86,19.2a117.34,117.34,0,0,0,8.82,19.33l20.83-9.13C320,208.46,313.88,192.82,304,191.31Z" transform="translate(0 -54.95)"/><path class="cls-12" d="M281.84,242.39l-4.46,1.34,6.33,9s9.38-3.36,7.46-7.44l-2.36-1.34C286.79,242.78,284.23,241.57,281.84,242.39Z" transform="translate(0 -54.95)"/><polygon class="cls-12" points="273.43 194.97 277.9 199.44 283.71 197.77 277.38 188.78 273.43 194.97"/><ellipse class="cls-15" cx="283.18" cy="116.06" rx="1.44" ry="1.74"/><polygon class="cls-15" points="284.37 120.66 283.54 120.63 283.03 116.62 284.61 116.27 284.37 120.66"/><path class="cls-15" d="M290.11,251.2c-3,0-5.66-.45-7.27-1.91a5.75,5.75,0,0,1-1.75-4.5A46.28,46.28,0,0,1,283,232.62c1.39-5.45,2.49-9.75-.85-15.06-5.32-8.43-3.73-20.22,0-27.61C285,184.3,284,178,283.64,175.68c-.05-.3-.09-.54-.11-.7a.28.28,0,0,1,.26-.31.29.29,0,0,1,.32.25c0,.15.05.38.09.67.38,2.41,1.37,8.8-1.57,14.62-3.65,7.25-5.21,18.8,0,27,3.47,5.51,2.29,10.14.92,15.5a45.9,45.9,0,0,0-1.87,12,5.18,5.18,0,0,0,1.55,4.08c2.7,2.43,8.66,1.81,14.42,1.21,2.58-.26,5.25-.54,7.6-.54a.29.29,0,1,1,0,.58c-2.32,0-5,.27-7.54.54A75.66,75.66,0,0,1,290.11,251.2Z" transform="translate(0 -54.95)"/><rect class="cls-15" x="305.24" y="194.11" width="12.58" height="2" rx="0.6"/></g><g id="Desk"><path class="cls-9" d="M388.64,257.72H111.36a3.34,3.34,0,0,1-3.33-3.33h0a3.34,3.34,0,0,1,3.33-3.33H388.64a3.34,3.34,0,0,1,3.33,3.33h0A3.34,3.34,0,0,1,388.64,257.72Z" transform="translate(0 -54.95)"/><path class="cls-17" d="M388.64,257.72H323.73a3.34,3.34,0,0,1-3.33-3.33h0a3.34,3.34,0,0,1,3.33-3.33h64.91a3.34,3.34,0,0,1,3.33,3.33h0A3.34,3.34,0,0,1,388.64,257.72Z" transform="translate(0 -54.95)"/><polygon class="cls-8" points="385.58 359.67 391.97 359.67 384.62 202.77 375.78 202.77 385.58 359.67"/><polygon class="cls-18" points="385.58 359.67 391.97 359.67 384.62 202.77 375.78 202.77 385.58 359.67"/><polygon class="cls-8" points="326.79 359.67 320.4 359.67 327.75 202.77 336.59 202.77 326.79 359.67"/><polygon class="cls-19" points="326.79 359.67 320.4 359.67 327.75 202.77 336.59 202.77 326.79 359.67"/><polygon class="cls-8" points="173.22 359.67 179.6 359.67 172.25 202.77 163.41 202.77 173.22 359.67"/><polygon class="cls-18" points="173.22 359.67 179.6 359.67 172.25 202.77 163.41 202.77 173.22 359.67"/><polygon class="cls-8" points="114.42 359.67 108.03 359.67 115.38 202.77 124.22 202.77 114.42 359.67"/><polygon class="cls-19" points="114.42 359.67 108.03 359.67 115.38 202.77 124.22 202.77 114.42 359.67"/><rect class="cls-8" x="117.24" y="211.12" width="213.25" height="13.15"/><rect class="cls-19" x="117.24" y="211.12" width="213.25" height="13.15"/><path class="cls-9" d="M152.33,242.22a1.4,1.4,0,0,0-1.4,1.39v6a1.4,1.4,0,0,0,1.4,1.4h45.35a.46.46,0,0,0,.46-.45v-7.94a.46.46,0,0,0-.46-.45Z" transform="translate(0 -54.95)"/><path class="cls-20" d="M179.17,188.11h19a0,0,0,0,1,0,0v7.16a0,0,0,0,1,0,0h-19a.81.81,0,0,1-.81-.81v-5.55A.81.81,0,0,1,179.17,188.11Z"/><rect class="cls-9" x="128.84" y="187.26" width="48.61" height="8.85" rx="1.4"/><rect class="cls-13" x="128.84" y="187.26" width="48.61" height="8.85" rx="1.4"/><rect class="cls-21" x="146" y="187.26" width="8.09" height="8.85" rx="0.57"/><rect class="cls-21" x="156.04" y="187.26" width="8.08" height="8.85" rx="0.57"/><path class="cls-9" d="M144.13,231.32a1.4,1.4,0,0,0-1.4,1.4v8.1a1.4,1.4,0,0,0,1.4,1.4h49.13a.46.46,0,0,0,.45-.46v-10a.46.46,0,0,0-.45-.46Z" transform="translate(0 -54.95)"/><path class="cls-20" d="M171,177.21h22.74a0,0,0,0,1,0,0v9.21a0,0,0,0,1,0,0H171a.81.81,0,0,1-.81-.81V178A.81.81,0,0,1,171,177.21Z"/><rect class="cls-9" x="127.92" y="176.37" width="41.32" height="10.89" rx="1.4"/><rect class="cls-19" x="127.92" y="176.37" width="41.32" height="10.89" rx="1.4"/><rect class="cls-22" x="135.17" y="178.53" width="29.91" height="6.57" rx="0.85"/><path class="cls-9" d="M158.54,226.11c-.77,0-1.4.37-1.4.82v3.57c0,.45.63.82,1.4.82H203.9c.25,0,.45-.12.45-.26v-4.68c0-.15-.2-.27-.45-.27Z" transform="translate(0 -54.95)"/><path class="cls-20" d="M185.2,171.65h19.15a0,0,0,0,1,0,0v4.22a0,0,0,0,1,0,0H185.2a.62.62,0,0,1-.62-.62v-3A.62.62,0,0,1,185.2,171.65Z"/><rect class="cls-9" x="135.05" y="171.15" width="48.61" height="5.22" rx="1.07"/><rect class="cls-13" x="135.05" y="171.15" width="48.61" height="5.22" rx="1.07"/><rect class="cls-21" x="140.3" y="171.15" width="1.87" height="5.22" rx="0.21"/><rect class="cls-21" x="178.05" y="171.15" width="1.84" height="5.22" rx="0.21"/><path class="cls-9" d="M150.34,218.57c-.77,0-1.4.37-1.4.82v5.89c0,.46.63.83,1.4.83h49.13c.25,0,.46-.12.46-.27v-7c0-.15-.21-.27-.46-.27Z" transform="translate(0 -54.95)"/><path class="cls-20" d="M177,164.11h22.93a0,0,0,0,1,0,0v6.55a0,0,0,0,1,0,0H177a.62.62,0,0,1-.62-.62v-5.31A.62.62,0,0,1,177,164.11Z"/><rect class="cls-9" x="134.13" y="163.61" width="41.32" height="7.54" rx="1.07"/><rect class="cls-23" x="134.13" y="163.61" width="41.32" height="7.54" rx="1.07"/><path class="cls-15" d="M259.92,249.4H218.65a.84.84,0,0,0-.84.83h0a.84.84,0,0,0,.84.83h41.27a.83.83,0,0,0,.83-.83h0A.83.83,0,0,0,259.92,249.4Z" transform="translate(0 -54.95)"/><polygon class="cls-8" points="340.66 192.47 367.78 192.47 370.23 196.01 338.21 196.01 340.66 192.47"/><path d="M382.54,186.83a3.65,3.65,0,1,1-3.65-3.65A3.64,3.64,0,0,1,382.54,186.83Z" transform="translate(0 -54.95)"/><path class="cls-8" d="M355.12,249.82a1.16,1.16,0,0,1-1.07-1.6l26.13-61.84a1.16,1.16,0,0,1,2.13.9l-26.13,61.83A1.16,1.16,0,0,1,355.12,249.82Z" transform="translate(0 -54.95)"/><path class="cls-8" d="M381.24,188a1.19,1.19,0,0,1-.69-.23L333.1,152.18a1.15,1.15,0,0,1,1.38-1.84l47.46,35.57a1.16,1.16,0,0,1-.7,2.08Z" transform="translate(0 -54.95)"/><path class="cls-8" d="M384.89,186.83a3.65,3.65,0,1,1-3.65-3.65A3.64,3.64,0,0,1,384.89,186.83Z" transform="translate(0 -54.95)"/><circle class="cls-8" cx="333.79" cy="96.31" r="3.64"/><path class="cls-9" d="M328.69,167.9a8.16,8.16,0,1,1,0-11.54A8.17,8.17,0,0,1,328.69,167.9Z" transform="translate(0 -54.95)"/><path class="cls-24" d="M328.69,167.9a8.16,8.16,0,1,1,0-11.54A8.17,8.17,0,0,1,328.69,167.9Z" transform="translate(0 -54.95)"/><path class="cls-8" d="M333.79,151.26a17.47,17.47,0,0,0-24.72,0L333.79,176A17.48,17.48,0,0,0,333.79,151.26Z" transform="translate(0 -54.95)"/><g class="cls-25"><polygon class="cls-9" points="309.06 96.31 205.24 196.11 311.75 196.11 333.79 121.03 309.06 96.31"/><polygon class="cls-24" points="309.06 96.31 205.24 196.11 311.75 196.11 333.79 121.03 309.06 96.31"/></g></g></svg>